<?xml version="1.0" encoding="UTF-8" standalone="no"?>
<!-- Created with Inkscape (http://www.inkscape.org/) -->

<svg
   version="1.1"
   id="svg9"
   width="1599.36"
   height="1599.36"
   viewBox="0 0 1599.36 1599.36"
   sodipodi:docname="v793-ning-10.svg"
   inkscape:version="1.2.1 (9c6d41e410, 2022-07-14)"
   xmlns:inkscape="http://www.inkscape.org/namespaces/inkscape"
   xmlns:sodipodi="http://sodipodi.sourceforge.net/DTD/sodipodi-0.dtd"
   xmlns="http://www.w3.org/2000/svg"
   xmlns:svg="http://www.w3.org/2000/svg">
  <defs
     id="defs13" />
  <sodipodi:namedview
     id="namedview11"
     pagecolor="#ffffff"
     bordercolor="#000000"
     borderopacity="0.25"
     inkscape:showpageshadow="2"
     inkscape:pageopacity="0.0"
     inkscape:pagecheckerboard="0"
     inkscape:deskcolor="#d1d1d1"
     showgrid="false"
     inkscape:zoom="0.25197579"
     inkscape:cx="752.05637"
     inkscape:cy="801.66431"
     inkscape:window-width="1920"
     inkscape:window-height="1009"
     inkscape:window-x="1672"
     inkscape:window-y="-8"
     inkscape:window-maximized="1"
     inkscape:current-layer="g15" />
  <g
     inkscape:groupmode="layer"
     inkscape:label="Image"
     id="g15">
    <path
       style="fill:#ffc747;stroke:none;stroke-width:1.41002"
       d="m 1169.1003,3.9338496 c 20.8683,39.6270874 42.3852,78.0754044 58.9388,119.8513504 45.8537,115.7595 66.4681,242.40289 57.9658,366.60415 -7.2476,105.91053 -34.5878,209.98097 -79.9339,305.97339 -142.9333,302.61766 -464.83849,495.36676 -798.37921,480.75906 -97.79868,-4.2865 -195.89067,-26.0853 -286.23321,-63.9865 -37.627705,-15.7922 -72.559439,-35.4337 -108.571245,-54.3985 15.865499,36.7732 46.337352,72.3761 71.798007,102.9312 67.057558,80.4837 147.768288,150.0962 239.815528,200.6593 91.9302,50.4786 191.9384,85.2496 296.10332,99.2791 286.97068,38.6486 582.02641,-73.5181 766.45651,-298.5284 68.6537,-83.769 119.8091,-179.1284 153.3393,-282.00315 91.51,-280.74961 19.1903,-598.68143 -176.4777,-817.80921 C 1322.7922,117.20325 1276.1348,75.016984 1225.501,39.579051 1208.4539,27.648907 1189.038,10.288792 1169.1003,3.9338496 Z"
       id="path177" />
  </g>
</svg>
